%TF.GenerationSoftware,KiCad,Pcbnew,9.0.1*%
%TF.CreationDate,2025-10-27T18:33:51+04:00*%
%TF.ProjectId,AMS1117-3v3,414d5331-3131-4372-9d33-76332e6b6963,rev?*%
%TF.SameCoordinates,Original*%
%TF.FileFunction,Copper,L1,Top*%
%TF.FilePolarity,Positive*%
%FSLAX46Y46*%
G04 Gerber Fmt 4.6, Leading zero omitted, Abs format (unit mm)*
G04 Created by KiCad (PCBNEW 9.0.1) date 2025-10-27 18:33:51*
%MOMM*%
%LPD*%
G01*
G04 APERTURE LIST*
G04 Aperture macros list*
%AMRoundRect*
0 Rectangle with rounded corners*
0 $1 Rounding radius*
0 $2 $3 $4 $5 $6 $7 $8 $9 X,Y pos of 4 corners*
0 Add a 4 corners polygon primitive as box body*
4,1,4,$2,$3,$4,$5,$6,$7,$8,$9,$2,$3,0*
0 Add four circle primitives for the rounded corners*
1,1,$1+$1,$2,$3*
1,1,$1+$1,$4,$5*
1,1,$1+$1,$6,$7*
1,1,$1+$1,$8,$9*
0 Add four rect primitives between the rounded corners*
20,1,$1+$1,$2,$3,$4,$5,0*
20,1,$1+$1,$4,$5,$6,$7,0*
20,1,$1+$1,$6,$7,$8,$9,0*
20,1,$1+$1,$8,$9,$2,$3,0*%
G04 Aperture macros list end*
%TA.AperFunction,SMDPad,CuDef*%
%ADD10RoundRect,0.225000X0.250000X-0.225000X0.250000X0.225000X-0.250000X0.225000X-0.250000X-0.225000X0*%
%TD*%
%TA.AperFunction,ComponentPad*%
%ADD11R,1.700000X1.700000*%
%TD*%
%TA.AperFunction,ComponentPad*%
%ADD12C,1.700000*%
%TD*%
%TA.AperFunction,SMDPad,CuDef*%
%ADD13RoundRect,0.218750X-0.256250X0.218750X-0.256250X-0.218750X0.256250X-0.218750X0.256250X0.218750X0*%
%TD*%
%TA.AperFunction,SMDPad,CuDef*%
%ADD14RoundRect,0.375000X0.375000X-0.625000X0.375000X0.625000X-0.375000X0.625000X-0.375000X-0.625000X0*%
%TD*%
%TA.AperFunction,SMDPad,CuDef*%
%ADD15RoundRect,0.500000X1.400000X-0.500000X1.400000X0.500000X-1.400000X0.500000X-1.400000X-0.500000X0*%
%TD*%
%TA.AperFunction,SMDPad,CuDef*%
%ADD16RoundRect,0.200000X0.275000X-0.200000X0.275000X0.200000X-0.275000X0.200000X-0.275000X-0.200000X0*%
%TD*%
%TA.AperFunction,ViaPad*%
%ADD17C,0.600000*%
%TD*%
%TA.AperFunction,Conductor*%
%ADD18C,1.000000*%
%TD*%
%TA.AperFunction,Conductor*%
%ADD19C,0.500000*%
%TD*%
G04 APERTURE END LIST*
D10*
%TO.P,C3,1*%
%TO.N,+3.3V*%
X126535000Y-95075000D03*
%TO.P,C3,2*%
%TO.N,GND*%
X126535000Y-93525000D03*
%TD*%
%TO.P,C2,1*%
%TO.N,+5V*%
X140375000Y-95125000D03*
%TO.P,C2,2*%
%TO.N,GND*%
X140375000Y-93575000D03*
%TD*%
D11*
%TO.P,J1,1,Pin_1*%
%TO.N,+5V*%
X145500000Y-95775000D03*
D12*
%TO.P,J1,2,Pin_2*%
%TO.N,GND*%
X145500000Y-93235000D03*
%TD*%
D13*
%TO.P,D1,1,K*%
%TO.N,GND*%
X142340000Y-91862500D03*
%TO.P,D1,2,A*%
%TO.N,Net-(D1-A)*%
X142340000Y-93437500D03*
%TD*%
D14*
%TO.P,U1,1,GND*%
%TO.N,GND*%
X131175000Y-97500000D03*
%TO.P,U1,2,VO*%
%TO.N,+3.3V*%
X133475000Y-97500000D03*
D15*
X133475000Y-91200000D03*
D14*
%TO.P,U1,3,VI*%
%TO.N,+5V*%
X135775000Y-97500000D03*
%TD*%
D16*
%TO.P,R1,1*%
%TO.N,+5V*%
X142300000Y-97000000D03*
%TO.P,R1,2*%
%TO.N,Net-(D1-A)*%
X142300000Y-95350000D03*
%TD*%
D11*
%TO.P,J2,1,Pin_1*%
%TO.N,+3.3V*%
X123450000Y-95775000D03*
D12*
%TO.P,J2,2,Pin_2*%
%TO.N,GND*%
X123450000Y-93235000D03*
%TD*%
D10*
%TO.P,C4,1*%
%TO.N,+3.3V*%
X128325000Y-95075000D03*
%TO.P,C4,2*%
%TO.N,GND*%
X128325000Y-93525000D03*
%TD*%
%TO.P,C1,1*%
%TO.N,+5V*%
X138550000Y-95125000D03*
%TO.P,C1,2*%
%TO.N,GND*%
X138550000Y-93575000D03*
%TD*%
D17*
%TO.N,GND*%
X129225000Y-97525000D03*
%TD*%
D18*
%TO.N,+5V*%
X141150000Y-97000000D02*
X142300000Y-97000000D01*
X142300000Y-97000000D02*
X144275000Y-97000000D01*
X140375000Y-95125000D02*
X140375000Y-96225000D01*
X135775000Y-97500000D02*
X135775000Y-95975000D01*
X140375000Y-96225000D02*
X141150000Y-97000000D01*
X135775000Y-95975000D02*
X136625000Y-95125000D01*
X144275000Y-97000000D02*
X145500000Y-95775000D01*
X136625000Y-95125000D02*
X140375000Y-95125000D01*
%TO.N,GND*%
X131175000Y-97500000D02*
X129250000Y-97500000D01*
X129250000Y-97500000D02*
X129225000Y-97525000D01*
%TO.N,+3.3V*%
X133475000Y-97500000D02*
X133475000Y-95075000D01*
X123450000Y-95775000D02*
X125835000Y-95775000D01*
X125835000Y-95775000D02*
X126535000Y-95075000D01*
X133475000Y-95075000D02*
X133475000Y-91200000D01*
X126535000Y-95075000D02*
X133475000Y-95075000D01*
D19*
%TO.N,Net-(D1-A)*%
X142300000Y-93477500D02*
X142340000Y-93437500D01*
X142300000Y-95350000D02*
X142300000Y-93477500D01*
%TD*%
%TA.AperFunction,Conductor*%
%TO.N,GND*%
G36*
X132417539Y-96095185D02*
G01*
X132463294Y-96147989D01*
X132474500Y-96199500D01*
X132474500Y-96212073D01*
X132454815Y-96279112D01*
X132447148Y-96289760D01*
X132357971Y-96400702D01*
X132273360Y-96571304D01*
X132227400Y-96756107D01*
X132224500Y-96798879D01*
X132224500Y-98201122D01*
X132224501Y-98201125D01*
X132227399Y-98243886D01*
X132227399Y-98243887D01*
X132273360Y-98428696D01*
X132357967Y-98599292D01*
X132357969Y-98599295D01*
X132477277Y-98747721D01*
X132477278Y-98747722D01*
X132625704Y-98867030D01*
X132625707Y-98867032D01*
X132796302Y-98951639D01*
X132796303Y-98951639D01*
X132796307Y-98951641D01*
X132981111Y-98997600D01*
X133023877Y-99000500D01*
X133926122Y-99000499D01*
X133968889Y-98997600D01*
X134153693Y-98951641D01*
X134324296Y-98867030D01*
X134472722Y-98747722D01*
X134528353Y-98678514D01*
X134585696Y-98638595D01*
X134655518Y-98636015D01*
X134715651Y-98671594D01*
X134721647Y-98678514D01*
X134777277Y-98747721D01*
X134777278Y-98747722D01*
X134925704Y-98867030D01*
X134925707Y-98867032D01*
X135096302Y-98951639D01*
X135096303Y-98951639D01*
X135096307Y-98951641D01*
X135281111Y-98997600D01*
X135323877Y-99000500D01*
X136226122Y-99000499D01*
X136268889Y-98997600D01*
X136453693Y-98951641D01*
X136624296Y-98867030D01*
X136772722Y-98747722D01*
X136892030Y-98599296D01*
X136976641Y-98428693D01*
X137022600Y-98243889D01*
X137025500Y-98201123D01*
X137025499Y-96798878D01*
X137022600Y-96756111D01*
X136976641Y-96571307D01*
X136892030Y-96400704D01*
X136892029Y-96400702D01*
X136889230Y-96395059D01*
X136885044Y-96371357D01*
X136876634Y-96348809D01*
X136879077Y-96337575D01*
X136877078Y-96326254D01*
X136886370Y-96304052D01*
X136891486Y-96280536D01*
X136902206Y-96266215D01*
X136904054Y-96261802D01*
X136912638Y-96252282D01*
X137003104Y-96161818D01*
X137064427Y-96128333D01*
X137090784Y-96125500D01*
X139250500Y-96125500D01*
X139317539Y-96145185D01*
X139363294Y-96197989D01*
X139374500Y-96249500D01*
X139374500Y-96323542D01*
X139382193Y-96362215D01*
X139382193Y-96362217D01*
X139395208Y-96427646D01*
X139399438Y-96448914D01*
X139412946Y-96516828D01*
X139412949Y-96516837D01*
X139488364Y-96698907D01*
X139488371Y-96698920D01*
X139597859Y-96862780D01*
X139597860Y-96862781D01*
X139597861Y-96862782D01*
X139737218Y-97002139D01*
X139737219Y-97002139D01*
X139744286Y-97009206D01*
X139744285Y-97009206D01*
X139744289Y-97009209D01*
X140512215Y-97777137D01*
X140512219Y-97777140D01*
X140676079Y-97886628D01*
X140676085Y-97886631D01*
X140676086Y-97886632D01*
X140858165Y-97962052D01*
X141051455Y-98000500D01*
X141051458Y-98000501D01*
X141051460Y-98000501D01*
X141254655Y-98000501D01*
X141254675Y-98000500D01*
X144373542Y-98000500D01*
X144404566Y-97994328D01*
X144470188Y-97981275D01*
X144566836Y-97962051D01*
X144620165Y-97939961D01*
X144748914Y-97886632D01*
X144912782Y-97777139D01*
X145052139Y-97637782D01*
X145052139Y-97637780D01*
X145062347Y-97627573D01*
X145062348Y-97627570D01*
X145528102Y-97161818D01*
X145589425Y-97128333D01*
X145615783Y-97125499D01*
X146375500Y-97125499D01*
X146442539Y-97145184D01*
X146488294Y-97197988D01*
X146499500Y-97249499D01*
X146499500Y-99375500D01*
X146479815Y-99442539D01*
X146427011Y-99488294D01*
X146375500Y-99499500D01*
X122624500Y-99499500D01*
X122557461Y-99479815D01*
X122511706Y-99427011D01*
X122500500Y-99375500D01*
X122500500Y-97249499D01*
X122520185Y-97182460D01*
X122572989Y-97136705D01*
X122624495Y-97125499D01*
X124347872Y-97125499D01*
X124407483Y-97119091D01*
X124542331Y-97068796D01*
X124657546Y-96982546D01*
X124743796Y-96867331D01*
X124747960Y-96856165D01*
X124789829Y-96800234D01*
X124855293Y-96775816D01*
X124864141Y-96775500D01*
X125933542Y-96775500D01*
X125966812Y-96768881D01*
X126031015Y-96756111D01*
X126126836Y-96737051D01*
X126180165Y-96714961D01*
X126308914Y-96661632D01*
X126472782Y-96552139D01*
X126612139Y-96412782D01*
X126612139Y-96412780D01*
X126622347Y-96402573D01*
X126622347Y-96402571D01*
X126913103Y-96111818D01*
X126974427Y-96078334D01*
X127000784Y-96075500D01*
X132350500Y-96075500D01*
X132417539Y-96095185D01*
G37*
%TD.AperFunction*%
%TA.AperFunction,Conductor*%
G36*
X146442539Y-89520185D02*
G01*
X146488294Y-89572989D01*
X146499500Y-89624500D01*
X146499500Y-94300500D01*
X146479815Y-94367539D01*
X146427011Y-94413294D01*
X146375500Y-94424500D01*
X144602129Y-94424500D01*
X144602123Y-94424501D01*
X144542516Y-94430908D01*
X144407671Y-94481202D01*
X144407664Y-94481206D01*
X144292455Y-94567452D01*
X144292452Y-94567455D01*
X144206206Y-94682664D01*
X144206202Y-94682671D01*
X144155908Y-94817517D01*
X144149501Y-94877116D01*
X144149500Y-94877135D01*
X144149500Y-95659217D01*
X144129815Y-95726256D01*
X144113181Y-95746898D01*
X143896899Y-95963181D01*
X143835576Y-95996666D01*
X143809218Y-95999500D01*
X143337174Y-95999500D01*
X143270135Y-95979815D01*
X143224380Y-95927011D01*
X143214436Y-95857853D01*
X143218788Y-95838611D01*
X143269086Y-95677196D01*
X143275500Y-95606616D01*
X143275500Y-95093384D01*
X143269086Y-95022804D01*
X143218478Y-94860394D01*
X143130472Y-94714815D01*
X143130470Y-94714813D01*
X143130469Y-94714811D01*
X143086819Y-94671161D01*
X143053334Y-94609838D01*
X143050500Y-94583480D01*
X143050500Y-94270534D01*
X143070185Y-94203495D01*
X143086819Y-94182853D01*
X143106726Y-94162946D01*
X143164281Y-94105391D01*
X143252549Y-93962287D01*
X143305436Y-93802685D01*
X143315500Y-93704174D01*
X143315500Y-93170826D01*
X143305436Y-93072315D01*
X143252549Y-92912713D01*
X143252545Y-92912707D01*
X143252544Y-92912704D01*
X143164283Y-92769612D01*
X143164280Y-92769608D01*
X143045391Y-92650719D01*
X143045387Y-92650716D01*
X142902295Y-92562455D01*
X142902289Y-92562452D01*
X142902287Y-92562451D01*
X142742685Y-92509564D01*
X142742683Y-92509563D01*
X142644181Y-92499500D01*
X142644174Y-92499500D01*
X142035826Y-92499500D01*
X142035818Y-92499500D01*
X141937316Y-92509563D01*
X141937315Y-92509564D01*
X141858219Y-92535773D01*
X141777715Y-92562450D01*
X141777704Y-92562455D01*
X141634612Y-92650716D01*
X141634608Y-92650719D01*
X141515719Y-92769608D01*
X141515716Y-92769612D01*
X141427455Y-92912704D01*
X141427451Y-92912713D01*
X141374564Y-93072315D01*
X141374564Y-93072316D01*
X141374563Y-93072316D01*
X141364500Y-93170818D01*
X141364500Y-93704181D01*
X141374563Y-93802683D01*
X141427450Y-93962284D01*
X141427455Y-93962295D01*
X141515716Y-94105387D01*
X141520197Y-94111054D01*
X141518424Y-94112455D01*
X141546666Y-94164176D01*
X141549500Y-94190534D01*
X141549500Y-94583480D01*
X141540855Y-94612920D01*
X141534332Y-94642907D01*
X141530577Y-94647922D01*
X141529815Y-94650519D01*
X141513181Y-94671161D01*
X141505325Y-94679017D01*
X141444002Y-94712502D01*
X141374310Y-94707518D01*
X141318377Y-94665646D01*
X141299938Y-94630340D01*
X141294166Y-94612920D01*
X141287003Y-94591303D01*
X141286999Y-94591297D01*
X141286998Y-94591294D01*
X141197970Y-94446959D01*
X141197967Y-94446955D01*
X141078044Y-94327032D01*
X141078040Y-94327029D01*
X140933705Y-94238001D01*
X140933699Y-94237998D01*
X140933697Y-94237997D01*
X140933694Y-94237996D01*
X140772709Y-94184651D01*
X140772702Y-94184650D01*
X140719785Y-94179243D01*
X140684942Y-94170448D01*
X140666838Y-94162950D01*
X140666832Y-94162948D01*
X140473543Y-94124500D01*
X140473541Y-94124500D01*
X136729675Y-94124500D01*
X136729655Y-94124499D01*
X136723541Y-94124499D01*
X136526460Y-94124499D01*
X136526457Y-94124499D01*
X136333172Y-94162946D01*
X136333164Y-94162948D01*
X136151088Y-94238366D01*
X136151079Y-94238371D01*
X135987219Y-94347859D01*
X135987215Y-94347862D01*
X135312275Y-95022804D01*
X135137220Y-95197859D01*
X135137218Y-95197861D01*
X135067538Y-95267540D01*
X134997859Y-95337219D01*
X134888371Y-95501079D01*
X134888366Y-95501089D01*
X134853892Y-95584315D01*
X134844656Y-95606616D01*
X134835038Y-95629835D01*
X134812950Y-95683159D01*
X134812948Y-95683167D01*
X134799049Y-95753044D01*
X134799049Y-95753045D01*
X134774500Y-95876456D01*
X134774500Y-96212073D01*
X134767678Y-96235304D01*
X134765120Y-96259384D01*
X134756162Y-96274523D01*
X134754815Y-96279112D01*
X134747148Y-96289759D01*
X134721648Y-96321483D01*
X134664305Y-96361403D01*
X134594483Y-96363983D01*
X134534350Y-96328405D01*
X134528352Y-96321483D01*
X134502852Y-96289759D01*
X134476194Y-96225175D01*
X134475500Y-96212073D01*
X134475500Y-92824499D01*
X134495185Y-92757460D01*
X134547989Y-92711705D01*
X134599500Y-92700499D01*
X134933028Y-92700499D01*
X134933036Y-92700499D01*
X135052418Y-92689886D01*
X135248049Y-92633909D01*
X135428407Y-92539698D01*
X135586109Y-92411109D01*
X135714698Y-92253407D01*
X135808909Y-92073049D01*
X135864886Y-91877418D01*
X135875500Y-91758037D01*
X135875499Y-90641964D01*
X135864886Y-90522582D01*
X135808909Y-90326951D01*
X135714698Y-90146593D01*
X135662684Y-90082803D01*
X135586109Y-89988890D01*
X135428409Y-89860304D01*
X135428410Y-89860304D01*
X135428407Y-89860302D01*
X135248049Y-89766091D01*
X135169850Y-89743715D01*
X135110814Y-89706349D01*
X135081350Y-89642995D01*
X135090815Y-89573769D01*
X135136204Y-89520650D01*
X135203106Y-89500503D01*
X135203963Y-89500500D01*
X146375500Y-89500500D01*
X146442539Y-89520185D01*
G37*
%TD.AperFunction*%
%TA.AperFunction,Conductor*%
G36*
X131813076Y-89520185D02*
G01*
X131858831Y-89572989D01*
X131868775Y-89642147D01*
X131839750Y-89705703D01*
X131780972Y-89743477D01*
X131780203Y-89743700D01*
X131752480Y-89751632D01*
X131701953Y-89766090D01*
X131701951Y-89766090D01*
X131701951Y-89766091D01*
X131521593Y-89860302D01*
X131521591Y-89860303D01*
X131521590Y-89860304D01*
X131363890Y-89988890D01*
X131235304Y-90146590D01*
X131141089Y-90326954D01*
X131085114Y-90522583D01*
X131085113Y-90522586D01*
X131074500Y-90641966D01*
X131074500Y-91758028D01*
X131074501Y-91758034D01*
X131085113Y-91877415D01*
X131141089Y-92073045D01*
X131141090Y-92073048D01*
X131141091Y-92073049D01*
X131235302Y-92253407D01*
X131235304Y-92253409D01*
X131363890Y-92411109D01*
X131457803Y-92487684D01*
X131521593Y-92539698D01*
X131701951Y-92633909D01*
X131897582Y-92689886D01*
X132016963Y-92700500D01*
X132350500Y-92700499D01*
X132417539Y-92720183D01*
X132463294Y-92772987D01*
X132474500Y-92824499D01*
X132474500Y-93950500D01*
X132454815Y-94017539D01*
X132402011Y-94063294D01*
X132350500Y-94074500D01*
X126436457Y-94074500D01*
X126243166Y-94112948D01*
X126243159Y-94112950D01*
X126225051Y-94120450D01*
X126190210Y-94129244D01*
X126137290Y-94134651D01*
X125976305Y-94187996D01*
X125976294Y-94188001D01*
X125831959Y-94277029D01*
X125831955Y-94277032D01*
X125712031Y-94396956D01*
X125622999Y-94541297D01*
X125622994Y-94541309D01*
X125616984Y-94559445D01*
X125610140Y-94570538D01*
X125608113Y-94579862D01*
X125586961Y-94608117D01*
X125456897Y-94738182D01*
X125395577Y-94771666D01*
X125369218Y-94774500D01*
X124864141Y-94774500D01*
X124797102Y-94754815D01*
X124751347Y-94702011D01*
X124747969Y-94693859D01*
X124743796Y-94682669D01*
X124743793Y-94682665D01*
X124743793Y-94682664D01*
X124657547Y-94567455D01*
X124657544Y-94567452D01*
X124542335Y-94481206D01*
X124542328Y-94481202D01*
X124407482Y-94430908D01*
X124407483Y-94430908D01*
X124347883Y-94424501D01*
X124347881Y-94424500D01*
X124347873Y-94424500D01*
X124347865Y-94424500D01*
X122624500Y-94424500D01*
X122557461Y-94404815D01*
X122511706Y-94352011D01*
X122500500Y-94300500D01*
X122500500Y-89624500D01*
X122520185Y-89557461D01*
X122572989Y-89511706D01*
X122624500Y-89500500D01*
X131746037Y-89500500D01*
X131813076Y-89520185D01*
G37*
%TD.AperFunction*%
%TD*%
M02*
