%TF.GenerationSoftware,KiCad,Pcbnew,9.0.1*%
%TF.CreationDate,2025-10-27T18:33:51+04:00*%
%TF.ProjectId,AMS1117-3v3,414d5331-3131-4372-9d33-76332e6b6963,rev?*%
%TF.SameCoordinates,Original*%
%TF.FileFunction,Legend,Bot*%
%TF.FilePolarity,Positive*%
%FSLAX46Y46*%
G04 Gerber Fmt 4.6, Leading zero omitted, Abs format (unit mm)*
G04 Created by KiCad (PCBNEW 9.0.1) date 2025-10-27 18:33:51*
%MOMM*%
%LPD*%
G01*
G04 APERTURE LIST*
%ADD10C,0.200000*%
G04 APERTURE END LIST*
D10*
X140019048Y-92547331D02*
X140495238Y-92547331D01*
X140495238Y-92547331D02*
X140542857Y-93023521D01*
X140542857Y-93023521D02*
X140495238Y-92975902D01*
X140495238Y-92975902D02*
X140400000Y-92928283D01*
X140400000Y-92928283D02*
X140161905Y-92928283D01*
X140161905Y-92928283D02*
X140066667Y-92975902D01*
X140066667Y-92975902D02*
X140019048Y-93023521D01*
X140019048Y-93023521D02*
X139971429Y-93118759D01*
X139971429Y-93118759D02*
X139971429Y-93356854D01*
X139971429Y-93356854D02*
X140019048Y-93452092D01*
X140019048Y-93452092D02*
X140066667Y-93499712D01*
X140066667Y-93499712D02*
X140161905Y-93547331D01*
X140161905Y-93547331D02*
X140400000Y-93547331D01*
X140400000Y-93547331D02*
X140495238Y-93499712D01*
X140495238Y-93499712D02*
X140542857Y-93452092D01*
X139685714Y-92547331D02*
X139352381Y-93547331D01*
X139352381Y-93547331D02*
X139019048Y-92547331D01*
X138066666Y-92880664D02*
X137685714Y-92880664D01*
X137923809Y-92547331D02*
X137923809Y-93404473D01*
X137923809Y-93404473D02*
X137876190Y-93499712D01*
X137876190Y-93499712D02*
X137780952Y-93547331D01*
X137780952Y-93547331D02*
X137685714Y-93547331D01*
X137209523Y-93547331D02*
X137304761Y-93499712D01*
X137304761Y-93499712D02*
X137352380Y-93452092D01*
X137352380Y-93452092D02*
X137399999Y-93356854D01*
X137399999Y-93356854D02*
X137399999Y-93071140D01*
X137399999Y-93071140D02*
X137352380Y-92975902D01*
X137352380Y-92975902D02*
X137304761Y-92928283D01*
X137304761Y-92928283D02*
X137209523Y-92880664D01*
X137209523Y-92880664D02*
X137066666Y-92880664D01*
X137066666Y-92880664D02*
X136971428Y-92928283D01*
X136971428Y-92928283D02*
X136923809Y-92975902D01*
X136923809Y-92975902D02*
X136876190Y-93071140D01*
X136876190Y-93071140D02*
X136876190Y-93356854D01*
X136876190Y-93356854D02*
X136923809Y-93452092D01*
X136923809Y-93452092D02*
X136971428Y-93499712D01*
X136971428Y-93499712D02*
X137066666Y-93547331D01*
X137066666Y-93547331D02*
X137209523Y-93547331D01*
X135780951Y-92547331D02*
X135161904Y-92547331D01*
X135161904Y-92547331D02*
X135495237Y-92928283D01*
X135495237Y-92928283D02*
X135352380Y-92928283D01*
X135352380Y-92928283D02*
X135257142Y-92975902D01*
X135257142Y-92975902D02*
X135209523Y-93023521D01*
X135209523Y-93023521D02*
X135161904Y-93118759D01*
X135161904Y-93118759D02*
X135161904Y-93356854D01*
X135161904Y-93356854D02*
X135209523Y-93452092D01*
X135209523Y-93452092D02*
X135257142Y-93499712D01*
X135257142Y-93499712D02*
X135352380Y-93547331D01*
X135352380Y-93547331D02*
X135638094Y-93547331D01*
X135638094Y-93547331D02*
X135733332Y-93499712D01*
X135733332Y-93499712D02*
X135780951Y-93452092D01*
X134733332Y-93452092D02*
X134685713Y-93499712D01*
X134685713Y-93499712D02*
X134733332Y-93547331D01*
X134733332Y-93547331D02*
X134780951Y-93499712D01*
X134780951Y-93499712D02*
X134733332Y-93452092D01*
X134733332Y-93452092D02*
X134733332Y-93547331D01*
X134352380Y-92547331D02*
X133733333Y-92547331D01*
X133733333Y-92547331D02*
X134066666Y-92928283D01*
X134066666Y-92928283D02*
X133923809Y-92928283D01*
X133923809Y-92928283D02*
X133828571Y-92975902D01*
X133828571Y-92975902D02*
X133780952Y-93023521D01*
X133780952Y-93023521D02*
X133733333Y-93118759D01*
X133733333Y-93118759D02*
X133733333Y-93356854D01*
X133733333Y-93356854D02*
X133780952Y-93452092D01*
X133780952Y-93452092D02*
X133828571Y-93499712D01*
X133828571Y-93499712D02*
X133923809Y-93547331D01*
X133923809Y-93547331D02*
X134209523Y-93547331D01*
X134209523Y-93547331D02*
X134304761Y-93499712D01*
X134304761Y-93499712D02*
X134352380Y-93452092D01*
X133447618Y-92547331D02*
X133114285Y-93547331D01*
X133114285Y-93547331D02*
X132780952Y-92547331D01*
X131209523Y-93547331D02*
X131685713Y-93547331D01*
X131685713Y-93547331D02*
X131685713Y-92547331D01*
X130876189Y-93547331D02*
X130876189Y-92547331D01*
X130876189Y-92547331D02*
X130638094Y-92547331D01*
X130638094Y-92547331D02*
X130495237Y-92594950D01*
X130495237Y-92594950D02*
X130399999Y-92690188D01*
X130399999Y-92690188D02*
X130352380Y-92785426D01*
X130352380Y-92785426D02*
X130304761Y-92975902D01*
X130304761Y-92975902D02*
X130304761Y-93118759D01*
X130304761Y-93118759D02*
X130352380Y-93309235D01*
X130352380Y-93309235D02*
X130399999Y-93404473D01*
X130399999Y-93404473D02*
X130495237Y-93499712D01*
X130495237Y-93499712D02*
X130638094Y-93547331D01*
X130638094Y-93547331D02*
X130876189Y-93547331D01*
X129685713Y-92547331D02*
X129495237Y-92547331D01*
X129495237Y-92547331D02*
X129399999Y-92594950D01*
X129399999Y-92594950D02*
X129304761Y-92690188D01*
X129304761Y-92690188D02*
X129257142Y-92880664D01*
X129257142Y-92880664D02*
X129257142Y-93213997D01*
X129257142Y-93213997D02*
X129304761Y-93404473D01*
X129304761Y-93404473D02*
X129399999Y-93499712D01*
X129399999Y-93499712D02*
X129495237Y-93547331D01*
X129495237Y-93547331D02*
X129685713Y-93547331D01*
X129685713Y-93547331D02*
X129780951Y-93499712D01*
X129780951Y-93499712D02*
X129876189Y-93404473D01*
X129876189Y-93404473D02*
X129923808Y-93213997D01*
X129923808Y-93213997D02*
X129923808Y-92880664D01*
X129923808Y-92880664D02*
X129876189Y-92690188D01*
X129876189Y-92690188D02*
X129780951Y-92594950D01*
X129780951Y-92594950D02*
X129685713Y-92547331D01*
X140042857Y-94157275D02*
X139852381Y-94157275D01*
X139852381Y-94157275D02*
X139757143Y-94204894D01*
X139757143Y-94204894D02*
X139661905Y-94300132D01*
X139661905Y-94300132D02*
X139614286Y-94490608D01*
X139614286Y-94490608D02*
X139614286Y-94823941D01*
X139614286Y-94823941D02*
X139661905Y-95014417D01*
X139661905Y-95014417D02*
X139757143Y-95109656D01*
X139757143Y-95109656D02*
X139852381Y-95157275D01*
X139852381Y-95157275D02*
X140042857Y-95157275D01*
X140042857Y-95157275D02*
X140138095Y-95109656D01*
X140138095Y-95109656D02*
X140233333Y-95014417D01*
X140233333Y-95014417D02*
X140280952Y-94823941D01*
X140280952Y-94823941D02*
X140280952Y-94490608D01*
X140280952Y-94490608D02*
X140233333Y-94300132D01*
X140233333Y-94300132D02*
X140138095Y-94204894D01*
X140138095Y-94204894D02*
X140042857Y-94157275D01*
X138757143Y-95109656D02*
X138852381Y-95157275D01*
X138852381Y-95157275D02*
X139042857Y-95157275D01*
X139042857Y-95157275D02*
X139138095Y-95109656D01*
X139138095Y-95109656D02*
X139185714Y-95062036D01*
X139185714Y-95062036D02*
X139233333Y-94966798D01*
X139233333Y-94966798D02*
X139233333Y-94681084D01*
X139233333Y-94681084D02*
X139185714Y-94585846D01*
X139185714Y-94585846D02*
X139138095Y-94538227D01*
X139138095Y-94538227D02*
X139042857Y-94490608D01*
X139042857Y-94490608D02*
X138852381Y-94490608D01*
X138852381Y-94490608D02*
X138757143Y-94538227D01*
X138471428Y-94490608D02*
X138090476Y-94490608D01*
X138328571Y-94157275D02*
X138328571Y-95014417D01*
X138328571Y-95014417D02*
X138280952Y-95109656D01*
X138280952Y-95109656D02*
X138185714Y-95157275D01*
X138185714Y-95157275D02*
X138090476Y-95157275D01*
X137042856Y-94252513D02*
X136995237Y-94204894D01*
X136995237Y-94204894D02*
X136899999Y-94157275D01*
X136899999Y-94157275D02*
X136661904Y-94157275D01*
X136661904Y-94157275D02*
X136566666Y-94204894D01*
X136566666Y-94204894D02*
X136519047Y-94252513D01*
X136519047Y-94252513D02*
X136471428Y-94347751D01*
X136471428Y-94347751D02*
X136471428Y-94442989D01*
X136471428Y-94442989D02*
X136519047Y-94585846D01*
X136519047Y-94585846D02*
X137090475Y-95157275D01*
X137090475Y-95157275D02*
X136471428Y-95157275D01*
X135852380Y-94157275D02*
X135757142Y-94157275D01*
X135757142Y-94157275D02*
X135661904Y-94204894D01*
X135661904Y-94204894D02*
X135614285Y-94252513D01*
X135614285Y-94252513D02*
X135566666Y-94347751D01*
X135566666Y-94347751D02*
X135519047Y-94538227D01*
X135519047Y-94538227D02*
X135519047Y-94776322D01*
X135519047Y-94776322D02*
X135566666Y-94966798D01*
X135566666Y-94966798D02*
X135614285Y-95062036D01*
X135614285Y-95062036D02*
X135661904Y-95109656D01*
X135661904Y-95109656D02*
X135757142Y-95157275D01*
X135757142Y-95157275D02*
X135852380Y-95157275D01*
X135852380Y-95157275D02*
X135947618Y-95109656D01*
X135947618Y-95109656D02*
X135995237Y-95062036D01*
X135995237Y-95062036D02*
X136042856Y-94966798D01*
X136042856Y-94966798D02*
X136090475Y-94776322D01*
X136090475Y-94776322D02*
X136090475Y-94538227D01*
X136090475Y-94538227D02*
X136042856Y-94347751D01*
X136042856Y-94347751D02*
X135995237Y-94252513D01*
X135995237Y-94252513D02*
X135947618Y-94204894D01*
X135947618Y-94204894D02*
X135852380Y-94157275D01*
X135138094Y-94252513D02*
X135090475Y-94204894D01*
X135090475Y-94204894D02*
X134995237Y-94157275D01*
X134995237Y-94157275D02*
X134757142Y-94157275D01*
X134757142Y-94157275D02*
X134661904Y-94204894D01*
X134661904Y-94204894D02*
X134614285Y-94252513D01*
X134614285Y-94252513D02*
X134566666Y-94347751D01*
X134566666Y-94347751D02*
X134566666Y-94442989D01*
X134566666Y-94442989D02*
X134614285Y-94585846D01*
X134614285Y-94585846D02*
X135185713Y-95157275D01*
X135185713Y-95157275D02*
X134566666Y-95157275D01*
X133661904Y-94157275D02*
X134138094Y-94157275D01*
X134138094Y-94157275D02*
X134185713Y-94633465D01*
X134185713Y-94633465D02*
X134138094Y-94585846D01*
X134138094Y-94585846D02*
X134042856Y-94538227D01*
X134042856Y-94538227D02*
X133804761Y-94538227D01*
X133804761Y-94538227D02*
X133709523Y-94585846D01*
X133709523Y-94585846D02*
X133661904Y-94633465D01*
X133661904Y-94633465D02*
X133614285Y-94728703D01*
X133614285Y-94728703D02*
X133614285Y-94966798D01*
X133614285Y-94966798D02*
X133661904Y-95062036D01*
X133661904Y-95062036D02*
X133709523Y-95109656D01*
X133709523Y-95109656D02*
X133804761Y-95157275D01*
X133804761Y-95157275D02*
X134042856Y-95157275D01*
X134042856Y-95157275D02*
X134138094Y-95109656D01*
X134138094Y-95109656D02*
X134185713Y-95062036D01*
X132947618Y-95490608D02*
X132947618Y-94062036D01*
X132328570Y-94490608D02*
X132090475Y-95157275D01*
X132090475Y-95157275D02*
X131852380Y-94490608D01*
X131280951Y-94157275D02*
X131185713Y-94157275D01*
X131185713Y-94157275D02*
X131090475Y-94204894D01*
X131090475Y-94204894D02*
X131042856Y-94252513D01*
X131042856Y-94252513D02*
X130995237Y-94347751D01*
X130995237Y-94347751D02*
X130947618Y-94538227D01*
X130947618Y-94538227D02*
X130947618Y-94776322D01*
X130947618Y-94776322D02*
X130995237Y-94966798D01*
X130995237Y-94966798D02*
X131042856Y-95062036D01*
X131042856Y-95062036D02*
X131090475Y-95109656D01*
X131090475Y-95109656D02*
X131185713Y-95157275D01*
X131185713Y-95157275D02*
X131280951Y-95157275D01*
X131280951Y-95157275D02*
X131376189Y-95109656D01*
X131376189Y-95109656D02*
X131423808Y-95062036D01*
X131423808Y-95062036D02*
X131471427Y-94966798D01*
X131471427Y-94966798D02*
X131519046Y-94776322D01*
X131519046Y-94776322D02*
X131519046Y-94538227D01*
X131519046Y-94538227D02*
X131471427Y-94347751D01*
X131471427Y-94347751D02*
X131423808Y-94252513D01*
X131423808Y-94252513D02*
X131376189Y-94204894D01*
X131376189Y-94204894D02*
X131280951Y-94157275D01*
X130519046Y-95062036D02*
X130471427Y-95109656D01*
X130471427Y-95109656D02*
X130519046Y-95157275D01*
X130519046Y-95157275D02*
X130566665Y-95109656D01*
X130566665Y-95109656D02*
X130519046Y-95062036D01*
X130519046Y-95062036D02*
X130519046Y-95157275D01*
X129519047Y-95157275D02*
X130090475Y-95157275D01*
X129804761Y-95157275D02*
X129804761Y-94157275D01*
X129804761Y-94157275D02*
X129899999Y-94300132D01*
X129899999Y-94300132D02*
X129995237Y-94395370D01*
X129995237Y-94395370D02*
X130090475Y-94442989D01*
X137780952Y-96291028D02*
X137828571Y-96243409D01*
X137828571Y-96243409D02*
X137923809Y-96195790D01*
X137923809Y-96195790D02*
X138019047Y-96195790D01*
X138019047Y-96195790D02*
X138114285Y-96243409D01*
X138114285Y-96243409D02*
X138161904Y-96291028D01*
X138161904Y-96291028D02*
X138209523Y-96386266D01*
X138209523Y-96386266D02*
X138209523Y-96481504D01*
X138209523Y-96481504D02*
X138161904Y-96576742D01*
X138161904Y-96576742D02*
X138114285Y-96624361D01*
X138114285Y-96624361D02*
X138019047Y-96671980D01*
X138019047Y-96671980D02*
X137923809Y-96671980D01*
X137923809Y-96671980D02*
X137828571Y-96624361D01*
X137828571Y-96624361D02*
X137780952Y-96576742D01*
X137780952Y-96195790D02*
X137780952Y-96576742D01*
X137780952Y-96576742D02*
X137733333Y-96624361D01*
X137733333Y-96624361D02*
X137685714Y-96624361D01*
X137685714Y-96624361D02*
X137590475Y-96576742D01*
X137590475Y-96576742D02*
X137542856Y-96481504D01*
X137542856Y-96481504D02*
X137542856Y-96243409D01*
X137542856Y-96243409D02*
X137638095Y-96100552D01*
X137638095Y-96100552D02*
X137780952Y-96005314D01*
X137780952Y-96005314D02*
X137971428Y-95957695D01*
X137971428Y-95957695D02*
X138161904Y-96005314D01*
X138161904Y-96005314D02*
X138304761Y-96100552D01*
X138304761Y-96100552D02*
X138399999Y-96243409D01*
X138399999Y-96243409D02*
X138447618Y-96433885D01*
X138447618Y-96433885D02*
X138399999Y-96624361D01*
X138399999Y-96624361D02*
X138304761Y-96767219D01*
X138304761Y-96767219D02*
X138161904Y-96862457D01*
X138161904Y-96862457D02*
X137971428Y-96910076D01*
X137971428Y-96910076D02*
X137780952Y-96862457D01*
X137780952Y-96862457D02*
X137638095Y-96767219D01*
X136685714Y-96767219D02*
X136685714Y-96243409D01*
X136685714Y-96243409D02*
X136733333Y-96148171D01*
X136733333Y-96148171D02*
X136828571Y-96100552D01*
X136828571Y-96100552D02*
X137019047Y-96100552D01*
X137019047Y-96100552D02*
X137114285Y-96148171D01*
X136685714Y-96719600D02*
X136780952Y-96767219D01*
X136780952Y-96767219D02*
X137019047Y-96767219D01*
X137019047Y-96767219D02*
X137114285Y-96719600D01*
X137114285Y-96719600D02*
X137161904Y-96624361D01*
X137161904Y-96624361D02*
X137161904Y-96529123D01*
X137161904Y-96529123D02*
X137114285Y-96433885D01*
X137114285Y-96433885D02*
X137019047Y-96386266D01*
X137019047Y-96386266D02*
X136780952Y-96386266D01*
X136780952Y-96386266D02*
X136685714Y-96338647D01*
X136209523Y-96767219D02*
X136209523Y-96100552D01*
X136209523Y-96195790D02*
X136161904Y-96148171D01*
X136161904Y-96148171D02*
X136066666Y-96100552D01*
X136066666Y-96100552D02*
X135923809Y-96100552D01*
X135923809Y-96100552D02*
X135828571Y-96148171D01*
X135828571Y-96148171D02*
X135780952Y-96243409D01*
X135780952Y-96243409D02*
X135780952Y-96767219D01*
X135780952Y-96243409D02*
X135733333Y-96148171D01*
X135733333Y-96148171D02*
X135638095Y-96100552D01*
X135638095Y-96100552D02*
X135495238Y-96100552D01*
X135495238Y-96100552D02*
X135399999Y-96148171D01*
X135399999Y-96148171D02*
X135352380Y-96243409D01*
X135352380Y-96243409D02*
X135352380Y-96767219D01*
X134876190Y-96100552D02*
X134876190Y-97100552D01*
X134876190Y-96148171D02*
X134780952Y-96100552D01*
X134780952Y-96100552D02*
X134590476Y-96100552D01*
X134590476Y-96100552D02*
X134495238Y-96148171D01*
X134495238Y-96148171D02*
X134447619Y-96195790D01*
X134447619Y-96195790D02*
X134400000Y-96291028D01*
X134400000Y-96291028D02*
X134400000Y-96576742D01*
X134400000Y-96576742D02*
X134447619Y-96671980D01*
X134447619Y-96671980D02*
X134495238Y-96719600D01*
X134495238Y-96719600D02*
X134590476Y-96767219D01*
X134590476Y-96767219D02*
X134780952Y-96767219D01*
X134780952Y-96767219D02*
X134876190Y-96719600D01*
X133971428Y-96100552D02*
X133971428Y-96767219D01*
X133971428Y-96195790D02*
X133923809Y-96148171D01*
X133923809Y-96148171D02*
X133828571Y-96100552D01*
X133828571Y-96100552D02*
X133685714Y-96100552D01*
X133685714Y-96100552D02*
X133590476Y-96148171D01*
X133590476Y-96148171D02*
X133542857Y-96243409D01*
X133542857Y-96243409D02*
X133542857Y-96767219D01*
X133066666Y-96767219D02*
X133066666Y-96100552D01*
X133066666Y-95767219D02*
X133114285Y-95814838D01*
X133114285Y-95814838D02*
X133066666Y-95862457D01*
X133066666Y-95862457D02*
X133019047Y-95814838D01*
X133019047Y-95814838D02*
X133066666Y-95767219D01*
X133066666Y-95767219D02*
X133066666Y-95862457D01*
X132161905Y-96719600D02*
X132257143Y-96767219D01*
X132257143Y-96767219D02*
X132447619Y-96767219D01*
X132447619Y-96767219D02*
X132542857Y-96719600D01*
X132542857Y-96719600D02*
X132590476Y-96671980D01*
X132590476Y-96671980D02*
X132638095Y-96576742D01*
X132638095Y-96576742D02*
X132638095Y-96291028D01*
X132638095Y-96291028D02*
X132590476Y-96195790D01*
X132590476Y-96195790D02*
X132542857Y-96148171D01*
X132542857Y-96148171D02*
X132447619Y-96100552D01*
X132447619Y-96100552D02*
X132257143Y-96100552D01*
X132257143Y-96100552D02*
X132161905Y-96148171D01*
X131780952Y-96719600D02*
X131685714Y-96767219D01*
X131685714Y-96767219D02*
X131495238Y-96767219D01*
X131495238Y-96767219D02*
X131400000Y-96719600D01*
X131400000Y-96719600D02*
X131352381Y-96624361D01*
X131352381Y-96624361D02*
X131352381Y-96576742D01*
X131352381Y-96576742D02*
X131400000Y-96481504D01*
X131400000Y-96481504D02*
X131495238Y-96433885D01*
X131495238Y-96433885D02*
X131638095Y-96433885D01*
X131638095Y-96433885D02*
X131733333Y-96386266D01*
X131733333Y-96386266D02*
X131780952Y-96291028D01*
X131780952Y-96291028D02*
X131780952Y-96243409D01*
X131780952Y-96243409D02*
X131733333Y-96148171D01*
X131733333Y-96148171D02*
X131638095Y-96100552D01*
X131638095Y-96100552D02*
X131495238Y-96100552D01*
X131495238Y-96100552D02*
X131400000Y-96148171D01*
M02*
